<svg version="1.1" id="Layer_1" xmlns="http://www.w3.org/2000/svg" xmlns:xlink="http://www.w3.org/1999/xlink" x="0px" y="0px"
	 width="100%" viewBox="0 0 500 500" enable-background="new 0 0 500 500" xml:space="preserve">
<path fill="#FEFFFF" opacity="1.000000" stroke="none" 
	d="
M275.000000,501.000000 
	C184.666687,501.000000 94.833344,500.975006 5.000193,501.095795 
	C1.576110,501.100403 0.903036,500.423828 0.905301,497.000000 
	C1.013778,333.000092 1.013756,169.000122 0.905337,5.000246 
	C0.903074,1.576944 1.575796,0.903021 4.999877,0.905286 
	C168.999756,1.013774 332.999725,1.013761 496.999634,0.905353 
	C500.422668,0.903090 501.096985,1.575431 501.094727,4.999758 
	C500.986206,168.999634 500.986237,332.999603 501.094604,496.999512 
	C501.096893,500.422272 500.425629,501.102203 497.000275,501.096344 
	C423.167023,500.969635 349.333466,501.000000 275.000000,501.000000 
z"/>
<path fill="#5097FD" opacity="1.000000" stroke="none" 
	d="
M169.296295,160.289185 
	C173.387222,152.956299 177.812668,145.933334 182.148438,138.855453 
	C183.012451,137.445007 184.200089,136.758926 185.687851,136.376358 
	C186.169800,136.252441 186.680527,136.214050 187.141968,136.040512 
	C200.980331,130.836212 213.343521,132.480667 224.518311,142.914474 
	C228.954178,147.056198 234.762833,149.696442 239.749191,153.293747 
	C242.051514,154.954712 243.626282,154.844055 245.870789,153.195480 
	C254.715195,146.699234 263.746613,140.458115 272.626526,134.009247 
	C274.810211,132.423386 276.836334,131.922043 279.548950,132.548096 
	C285.369080,133.891373 291.251587,135.089828 297.173553,135.821335 
	C301.011932,136.295456 303.479797,137.849091 305.430786,141.180878 
	C309.041046,147.346237 313.041382,153.283188 316.942932,159.656891 
	C315.939087,161.349426 314.421875,161.668274 312.448700,161.781921 
	C307.972565,159.566010 306.102478,155.429703 304.211243,151.701233 
	C300.976715,145.324493 296.249390,142.538422 289.273468,140.967758 
	C280.687469,139.034561 273.921997,140.279190 267.243958,145.974228 
	C261.310089,151.034637 254.413589,154.950348 248.296082,159.810699 
	C244.265137,163.013275 241.204575,162.607025 237.245667,159.792938 
	C228.561447,153.620026 219.499023,147.983826 210.733017,141.922073 
	C207.768646,139.872192 204.909729,139.676041 201.372955,139.991531 
	C191.670578,140.857025 184.359268,144.593781 180.404709,153.989182 
	C179.340439,156.517700 177.628204,158.941132 174.796585,160.715027 
	C172.787552,161.351608 171.168350,161.369614 169.296295,160.289185 
z"/>
<path fill="#37BBFC" opacity="1.000000" stroke="none" 
	d="
M267.998718,251.261444 
	C270.226715,248.087311 272.663086,245.243851 275.099426,242.400406 
	C274.925903,242.091553 274.752380,241.782715 274.578857,241.473862 
	C267.002197,244.139877 259.228271,246.361130 251.908997,249.607468 
	C245.641693,252.387192 240.113571,252.195862 233.918060,249.502960 
	C226.696091,246.363937 219.078873,244.134293 210.409378,241.078720 
	C213.060440,245.832809 216.522644,248.143234 219.052444,251.628021 
	C218.309448,253.429672 216.832092,253.814270 214.864899,253.973938 
	C212.916199,253.749832 211.730698,252.834564 210.657303,251.778748 
	C204.498062,245.720383 198.384018,239.616394 192.333725,233.449112 
	C191.399734,232.497070 190.550034,231.463135 190.499954,229.666107 
	C190.701645,229.083908 190.841431,228.873260 191.310028,228.469742 
	C193.879898,227.572144 195.900330,228.447250 197.914352,229.204727 
	C211.130219,234.175171 224.509766,238.697723 237.706314,243.716156 
	C241.337280,245.096970 244.706223,245.107788 248.331192,243.723083 
	C261.675598,238.625687 275.215454,234.058228 288.591400,229.040115 
	C290.935730,228.160599 294.208527,225.834274 295.863098,228.341553 
	C297.810425,231.292480 294.058105,233.220245 292.188446,235.023041 
	C285.866119,241.119339 280.336670,248.049393 272.793945,253.352905 
	C270.778656,253.356674 269.421448,252.636993 267.998718,251.261444 
z"/>
<path fill="#1BE4FC" opacity="1.000000" stroke="none" 
	d="
M286.186371,334.789612 
	C280.972656,343.454926 275.848572,351.739319 270.531677,360.335388 
	C269.746277,359.467651 269.250122,359.048828 268.912964,358.527283 
	C264.755249,352.095886 264.771790,352.103119 259.318207,357.304779 
	C255.105347,361.322998 250.754807,365.203552 246.671173,369.347992 
	C244.138107,371.918793 242.226242,372.376160 239.457001,369.498047 
	C234.733490,364.588745 229.526047,360.148468 224.712479,355.321136 
	C221.968674,352.569458 220.047119,352.133331 218.367905,356.205811 
	C217.825729,357.520752 217.310471,359.026520 215.428894,359.983826 
	C210.273544,351.948120 205.115494,343.908173 199.929520,335.518127 
	C199.546722,332.942413 201.309387,332.811157 203.083801,332.322632 
	C206.695404,332.952667 207.594955,335.900574 209.197769,338.145203 
	C211.213623,340.968292 212.874542,344.037384 215.063782,346.819122 
	C217.373184,346.504364 217.719498,343.093079 220.310654,343.556091 
	C222.783676,343.997955 224.146194,346.060699 225.807404,347.642578 
	C230.492386,352.103912 235.737610,355.967926 240.019135,360.853241 
	C242.246521,363.394684 244.162750,362.927643 246.200012,360.631836 
	C250.952011,355.276794 256.700684,350.977356 261.820251,346.009857 
	C264.194946,343.705688 266.538147,342.004425 269.143555,345.730804 
	C270.340546,347.442780 271.253845,346.717743 272.094910,345.329102 
	C273.987915,342.203613 276.163269,339.260498 278.066040,336.140564 
	C279.014893,334.584778 279.836151,332.906311 282.135559,332.236572 
	C284.152374,332.260132 285.528931,332.802338 286.186371,334.789612 
z"/>
<path fill="#26D8FC" opacity="1.000000" stroke="none" 
	d="
M286.377930,334.975525 
	C285.255219,333.838348 283.883636,333.390137 282.115295,332.953979 
	C281.479797,329.841766 279.791077,327.944244 277.100586,326.497070 
	C266.886078,321.002777 256.746704,315.366425 246.682724,309.601410 
	C244.072006,308.105865 241.898758,308.120544 239.295380,309.613770 
	C229.234833,315.384277 219.074478,320.980591 208.888855,326.528839 
	C206.477631,327.842316 204.341644,329.317688 204.177246,332.740997 
	C202.514084,333.063812 201.351074,333.738403 200.084625,334.882385 
	C193.866318,327.331207 193.873764,327.344604 202.135849,322.744019 
	C214.618530,315.793304 227.122772,308.879944 239.536987,301.808777 
	C241.950287,300.434113 243.790298,300.268311 246.310898,301.707092 
	C259.583893,309.283508 272.867737,316.857666 286.392426,323.967285 
	C291.006836,326.393005 291.712891,328.544373 288.301300,332.285217 
	C287.638611,333.011841 287.200684,333.943451 286.377930,334.975525 
z"/>
<path fill="#5D8CFE" opacity="1.000000" stroke="none" 
	d="
M216.248764,119.074020 
	C211.161331,114.564018 206.340363,109.979843 201.674744,105.242630 
	C200.033569,103.576271 198.344269,102.833511 195.981400,102.857559 
	C185.490799,102.964348 174.998154,102.949715 164.507141,102.866440 
	C162.352463,102.849342 160.651901,103.346077 159.231400,105.019569 
	C155.711746,109.166115 150.656479,111.935692 150.262527,118.598640 
	C150.024338,122.626953 146.010086,124.529068 141.900467,123.743271 
	C138.064453,123.009781 135.823929,120.348259 135.901199,116.275215 
	C135.977585,112.249779 138.257477,108.749741 142.051483,109.211617 
	C147.853577,109.917961 150.674454,106.441353 153.574478,103.018333 
	C157.313202,98.605339 161.522964,96.838501 167.415985,97.149635 
	C177.214203,97.666946 187.061234,97.390556 196.884186,97.231308 
	C199.938797,97.181786 202.232147,97.941521 204.362045,100.229378 
	C209.124680,105.345192 214.138336,110.227295 219.193207,115.512512 
	C218.868301,117.259888 217.733582,118.109695 216.248764,119.074020 
z"/>
<path fill="#5D8CFE" opacity="1.000000" stroke="none" 
	d="
M267.829651,115.178413 
	C272.834595,109.488167 278.064178,104.149780 283.207703,98.729767 
	C284.830200,97.020058 286.811218,97.294868 288.778870,97.292793 
	C299.926239,97.281036 311.075684,97.406578 322.219696,97.213646 
	C325.516235,97.156570 327.937195,98.073502 330.042023,100.558296 
	C331.864532,102.709801 334.082886,104.522644 335.951385,106.639557 
	C337.624664,108.535271 339.392365,109.214386 342.028168,108.999504 
	C346.847839,108.606598 349.807709,111.361885 350.084137,115.783638 
	C350.340607,119.886322 347.030243,123.748123 343.063629,123.973610 
	C339.099335,124.198967 335.638123,120.998940 335.095734,116.607018 
	C334.337524,110.467308 326.001373,102.910370 319.961639,102.905632 
	C310.311676,102.898056 300.659637,103.016426 291.012970,102.837906 
	C287.938690,102.781021 285.689362,103.579994 283.592133,105.884171 
	C280.125092,109.693344 276.334320,113.207901 272.378235,116.995956 
	C270.528687,117.079178 269.148926,116.599174 267.829651,115.178413 
z"/>
<path fill="#27D3FC" opacity="1.000000" stroke="none" 
	d="
M237.543243,284.746307 
	C237.922913,287.893982 236.706619,289.920654 234.342331,291.692627 
	C220.493088,302.071991 206.670120,312.490265 193.020935,323.129761 
	C189.862961,325.591370 187.857452,325.005920 185.459839,322.417847 
	C180.824280,317.413940 176.490570,312.002350 171.244934,307.724548 
	C164.884888,302.537903 164.272034,296.739227 167.102600,289.395813 
	C168.255814,287.968506 169.515182,287.832184 171.232422,288.231415 
	C173.635773,289.872101 172.954315,291.930481 172.552490,293.825989 
	C171.869141,297.049500 172.737946,299.603241 175.092728,301.920349 
	C179.227783,305.989227 183.486923,309.947052 187.284302,314.343903 
	C188.861862,316.170502 190.506760,316.627411 192.434509,315.068237 
	C205.575958,304.439209 219.912201,295.341064 232.718964,283.688599 
	C234.628235,283.058411 236.012070,283.498749 237.543243,284.746307 
z"/>
<path fill="#5A7EFE" opacity="1.000000" stroke="none" 
	d="
M262.549988,92.140503 
	C262.235107,93.748627 262.197784,95.062035 262.132111,96.374031 
	C261.916229,100.686081 258.428436,104.026665 254.373718,103.816254 
	C250.518097,103.616180 247.154877,100.084206 247.145706,96.225624 
	C247.136429,92.317986 250.339569,88.592323 254.391174,89.001694 
	C259.048859,89.472305 260.956848,86.183281 263.248596,83.615837 
	C266.368835,80.120232 269.735840,78.309692 274.532837,78.917427 
	C277.646820,79.311935 280.851379,78.984962 284.015289,78.993599 
	C287.136932,79.002113 289.872192,79.070755 292.407104,76.099907 
	C295.100677,72.943069 299.139465,73.324112 302.192627,76.296509 
	C305.206879,79.231033 305.408264,82.778572 302.985748,86.251503 
	C300.812897,89.366508 295.883240,90.670776 293.292328,87.904526 
	C286.996094,81.182213 279.263672,84.797874 272.230103,84.367249 
	C267.770569,84.094215 266.029694,89.370300 262.549988,92.140503 
z"/>
<path fill="#5C80FE" opacity="1.000000" stroke="none" 
	d="
M191.322937,88.785820 
	C184.460419,89.207993 180.588776,85.788895 181.492050,80.571129 
	C182.525497,74.601433 189.472122,71.788673 193.572296,76.171326 
	C196.174927,78.953247 198.783661,79.191437 201.943573,79.127213 
	C203.608765,79.093361 205.305511,79.326645 206.935898,79.086082 
	C214.450729,77.977272 220.630569,79.950333 225.062729,86.432838 
	C226.493423,88.525368 228.506592,89.051224 231.104401,88.948059 
	C235.545105,88.771690 238.850647,92.156242 238.859238,96.264526 
	C238.867188,100.070305 235.422180,103.664673 231.596252,103.842369 
	C227.363037,104.038986 224.010193,100.582169 223.864029,95.870354 
	C223.703674,90.701233 217.181107,84.263931 211.975418,84.159225 
	C210.310211,84.125732 208.642166,84.200981 206.978165,84.144905 
	C201.382172,83.956291 195.675232,83.350838 191.322937,88.785820 
z"/>
<path fill="#6073FE" opacity="1.000000" stroke="none" 
	d="
M132.793152,71.386642 
	C136.828903,65.938309 141.897079,62.064644 146.166245,57.420628 
	C147.628220,55.830288 149.400101,55.991726 151.216537,55.991940 
	C162.036591,55.993217 172.856750,55.965935 183.676590,56.013172 
	C186.058533,56.023567 187.925247,55.739880 189.737076,53.640739 
	C192.862198,50.020058 197.701492,50.203411 200.665695,53.463455 
	C203.448822,56.524387 203.340820,60.913376 200.411392,63.796799 
	C197.216553,66.941475 192.596664,66.944443 189.438812,63.286236 
	C187.895950,61.498928 186.372482,61.114948 184.291107,61.127377 
	C175.468933,61.180042 166.618042,61.578068 157.833603,60.999828 
	C151.921585,60.610668 147.605011,62.612370 143.827713,66.686462 
	C141.689850,68.992317 139.587418,71.331032 137.165192,73.803871 
	C134.490509,75.057762 133.111618,74.231140 132.793152,71.386642 
z"/>
<path fill="#6073FE" opacity="1.000000" stroke="none" 
	d="
M349.098907,73.323563 
	C347.279358,71.930794 345.635132,70.928719 344.593719,69.490242 
	C339.546997,62.519535 332.967712,59.987209 324.395172,61.018486 
	C318.661682,61.708229 312.777802,61.120945 306.961578,61.159016 
	C302.614685,61.187462 298.457001,60.568874 294.757874,64.601334 
	C292.042114,67.561829 287.877930,66.466545 285.064728,63.306984 
	C282.369232,60.279594 282.725677,55.657845 285.797394,53.027748 
	C289.020996,50.267612 293.029388,49.799953 295.599945,53.006275 
	C298.082367,56.102680 300.786743,55.993374 303.896118,55.992970 
	C313.701050,55.991703 323.512115,56.193295 333.307831,55.893154 
	C337.196625,55.774002 340.116669,56.832798 342.279907,59.894779 
	C345.362305,64.257812 349.298309,67.740524 353.565735,71.397331 
	C352.790131,73.316376 351.348602,73.825600 349.098907,73.323563 
z"/>
<path fill="#0CFCFB" opacity="1.000000" stroke="none" 
	d="
M249.908600,399.529083 
	C257.846405,398.339935 260.035278,400.091827 260.753510,407.890289 
	C260.849884,408.936401 260.907318,409.912170 261.756683,410.568176 
	C266.885925,414.529541 269.900146,420.120850 273.428192,425.354187 
	C275.779144,428.841431 275.803467,432.958801 272.781006,435.720947 
	C269.582153,438.644287 266.204010,438.688080 262.894806,435.964386 
	C259.657227,433.299683 259.443695,429.188446 261.811401,425.649780 
	C262.809265,424.158478 266.877289,423.447540 264.192596,420.832489 
	C261.431000,418.142578 259.847992,413.319305 254.780273,413.906799 
	C250.711121,414.378479 247.738708,412.917908 246.376358,409.257538 
	C244.975815,405.494598 245.837112,402.017609 249.908600,399.529083 
z"/>
<path fill="#0BFCFB" opacity="1.000000" stroke="none" 
	d="
M211.670486,433.916382 
	C210.151520,429.895599 212.114029,427.307434 213.587952,424.032104 
	C216.203506,418.219940 220.821747,414.505646 224.728821,410.009216 
	C225.607361,408.998169 225.054001,407.780396 225.110977,406.648193 
	C225.359680,401.704468 228.352859,398.769135 232.968918,398.908875 
	C237.304749,399.040131 240.263321,402.308746 240.103104,406.790649 
	C239.943619,411.252136 236.467148,414.214172 231.722748,413.930969 
	C229.172958,413.778778 221.842392,419.076508 221.149063,421.525421 
	C220.728775,423.009796 221.867599,423.468658 222.676315,424.292389 
	C226.627411,428.316956 226.855118,432.304749 223.448288,435.613800 
	C219.946716,439.014923 216.096710,438.563049 211.670486,433.916382 
z"/>
<path fill="#3DAEFD" opacity="1.000000" stroke="none" 
	d="
M93.722023,193.251144 
	C96.470467,195.984528 97.341515,198.935394 95.785683,202.122437 
	C94.286591,205.193253 91.637733,206.619720 88.101646,206.681992 
	C84.050713,206.753311 78.923859,212.297958 78.824623,216.383179 
	C78.701805,221.439346 75.472679,224.958969 71.037277,224.871094 
	C67.105087,224.793182 64.012894,221.552612 63.929417,217.422165 
	C63.829742,212.489685 66.441238,210.150497 72.262627,209.957840 
	C76.446945,209.819351 81.726189,204.040680 81.476395,199.872406 
	C81.076477,193.198944 86.572464,190.046295 93.722023,193.251144 
z"/>
<path fill="#31BEFC" opacity="1.000000" stroke="none" 
	d="
M380.522369,253.027985 
	C378.927094,251.163910 377.148438,252.016953 375.567169,251.854630 
	C371.412659,251.428238 368.140015,247.725540 368.386719,243.734756 
	C368.626007,239.863098 372.050934,236.853256 376.143524,236.918015 
	C380.416229,236.985626 383.536255,240.224503 383.544830,244.601257 
	C383.555725,250.155014 388.046112,254.764557 393.703369,255.029388 
	C397.987305,255.229935 400.982361,258.083740 401.099792,262.196930 
	C401.223114,266.515564 398.874695,269.073730 394.855469,269.923462 
	C390.965912,270.745819 386.381165,267.978821 386.554291,264.047241 
	C386.780731,258.904907 383.859680,256.255615 380.522369,253.027985 
z"/>
<path fill="#3DAEFD" opacity="1.000000" stroke="none" 
	d="
M406.656006,212.990631 
	C403.289673,209.632202 400.842743,206.075562 395.419556,206.240616 
	C391.610840,206.356537 388.737335,201.495010 389.522766,197.842819 
	C390.406433,193.733917 393.128204,191.561523 397.322723,191.583817 
	C401.271057,191.604782 404.379120,194.951035 404.542694,199.051712 
	C404.785522,205.139709 409.048676,209.620239 414.871368,209.907059 
	C419.240234,210.122269 421.977234,212.874603 422.056488,217.132355 
	C422.131195,221.147888 419.107574,224.554535 415.196350,224.861496 
	C411.391541,225.160110 407.832184,222.146362 407.174835,218.172623 
	C406.905640,216.545502 407.883759,214.871414 406.656006,212.990631 
z"/>
<path fill="#31BEFC" opacity="1.000000" stroke="none" 
	d="
M95.094582,269.460602 
	C88.638000,270.327942 85.106453,267.917297 84.869484,262.904877 
	C84.636742,257.981873 87.635628,255.281342 93.524300,255.111206 
	C97.393700,254.999405 102.833191,249.118301 102.567657,245.333649 
	C102.240814,240.675110 104.790848,237.370575 109.029968,236.959290 
	C113.611359,236.514801 117.283257,239.556152 117.522247,243.993271 
	C117.731926,247.886093 114.329880,251.500275 110.116173,251.861115 
	C104.430191,252.348022 100.222557,256.719238 99.836487,262.524017 
	C99.632622,265.589264 98.163879,267.842773 95.094582,269.460602 
z"/>
<path fill="#25D7FC" opacity="1.000000" stroke="none" 
	d="
M319.453003,294.751648 
	C321.124969,299.427338 319.728027,302.742645 316.384888,305.927734 
	C310.869904,311.182007 305.740295,316.845886 300.537415,322.420380 
	C298.154022,324.974060 296.131897,325.656616 293.002930,323.140442 
	C284.622833,316.401581 275.960052,310.014282 267.215210,303.216736 
	C265.737854,300.727753 267.691833,300.381195 269.296387,299.511841 
	C271.869354,298.939209 273.492432,300.159088 275.022156,301.426636 
	C280.633606,306.076385 287.109985,309.550812 292.594208,314.358002 
	C295.101074,316.555389 297.062683,316.500488 299.236328,313.795044 
	C301.929840,310.442566 305.125031,307.516357 308.263275,304.579102 
	C311.215942,301.815552 313.689850,298.826843 315.053040,294.615112 
	C316.636444,293.821930 317.903259,293.811584 319.453003,294.751648 
z"/>
<path fill="#2DCFFC" opacity="1.000000" stroke="none" 
	d="
M125.195801,312.245575 
	C131.765884,303.209717 140.265366,295.974182 148.068314,288.075409 
	C150.959686,285.148529 152.524261,282.344757 152.291107,278.095947 
	C151.918472,271.305237 152.191391,264.479065 152.191391,257.171997 
	C155.771500,258.577545 157.531570,260.774719 157.573380,264.228577 
	C157.647919,270.384277 157.707169,276.541351 157.658020,282.696930 
	C157.628769,286.363007 154.885162,288.568665 152.634384,290.873291 
	C145.426498,298.253784 138.074158,305.493164 130.478210,312.922791 
	C128.476639,314.146301 126.971657,313.572571 125.195801,312.245575 
z"/>
<path fill="#04FDFB" opacity="1.000000" stroke="none" 
	d="
M280.610535,401.790802 
	C283.738312,404.318237 285.301392,407.823700 288.711243,409.527008 
	C290.286041,410.313660 290.002869,412.071228 290.002991,413.563507 
	C290.003265,418.060883 289.970520,422.558563 290.015930,427.055511 
	C290.061127,431.535248 289.201996,435.944031 293.512390,439.668762 
	C296.433319,442.192932 295.188049,446.939819 292.021576,449.299683 
	C288.777130,451.717621 285.490204,451.567535 282.421967,449.001190 
	C279.498016,446.555603 278.613373,441.517059 281.580139,439.247101 
	C285.421509,436.307922 284.827271,432.749939 284.902649,429.033997 
	C284.919525,428.201508 284.826752,427.359772 284.917206,426.536865 
	C285.824310,418.282410 284.925201,410.691467 277.186340,405.203064 
	C276.051575,401.808441 278.157257,401.698456 280.610535,401.790802 
z"/>
<path fill="#04FDFB" opacity="1.000000" stroke="none" 
	d="
M209.180908,404.532104 
	C203.230087,408.955658 199.699661,413.938812 201.009857,421.504578 
	C201.540527,424.568878 201.197159,427.805878 201.068207,430.956787 
	C200.949219,433.864075 201.388428,436.145844 203.870514,438.335907 
	C207.242020,441.310760 206.813019,445.904022 203.637558,448.920044 
	C200.520844,451.880219 196.409073,451.864288 193.392395,448.880310 
	C190.324219,445.845367 189.964279,441.177399 193.324570,438.267395 
	C195.697952,436.212067 196.131973,434.104248 196.021179,431.361755 
	C195.900558,428.376526 196.393265,425.317749 195.919464,422.404724 
	C194.453857,413.393921 197.668304,406.642151 205.398010,401.475403 
	C207.353577,401.691101 209.164444,401.916534 209.180908,404.532104 
z"/>
<path fill="#2DC6FC" opacity="1.000000" stroke="none" 
	d="
M125.401245,282.762695 
	C125.860168,277.497681 128.395111,274.960236 133.494614,274.869080 
	C137.910645,274.790131 139.985703,272.034454 140.037476,267.827362 
	C140.131729,260.168671 140.064224,252.507980 140.064224,244.342789 
	C143.448730,246.155350 145.430405,248.181137 145.260223,252.040756 
	C145.047623,256.862518 145.048752,261.708313 145.264938,266.529968 
	C145.451324,270.686920 145.243210,274.496857 141.363937,277.107147 
	C140.158676,277.918121 139.880005,279.122589 140.196091,280.624481 
	C141.211517,285.449402 138.695129,288.339386 134.447601,289.685669 
	C130.602509,290.904388 127.331421,288.315033 125.401245,282.762695 
z"/>
<path fill="#10EFFB" opacity="1.000000" stroke="none" 
	d="
M160.443130,355.729126 
	C160.837479,363.506256 162.018707,371.219543 160.596985,378.418854 
	C159.484512,384.052216 156.142288,389.470398 153.792160,394.976959 
	C152.504654,397.993683 148.618805,398.471741 145.381409,396.865204 
	C142.048737,395.211456 140.441833,392.335968 141.125397,388.639526 
	C141.762283,385.195587 143.990326,383.106995 147.573792,382.648651 
	C154.723297,381.734192 155.801056,380.524048 155.819778,373.418274 
	C155.834244,367.921906 155.851013,362.425537 155.941879,356.465698 
	C157.264191,354.962219 158.624039,354.747559 160.443130,355.729126 
z"/>
<path fill="#15E6FC" opacity="1.000000" stroke="none" 
	d="
M311.320312,330.792847 
	C311.708649,338.770660 311.757751,346.426514 311.810089,354.082367 
	C311.821411,355.736176 311.924042,357.289642 310.215973,358.462433 
	C308.596985,359.574036 308.502380,361.343842 308.617218,363.332031 
	C308.914307,368.475922 305.760437,371.968079 301.200287,372.007477 
	C296.940491,372.044281 293.809937,368.806793 293.793915,364.348083 
	C293.777008,359.641571 296.542328,356.806458 301.799866,357.013428 
	C305.798737,357.170868 306.656433,355.257843 306.627533,351.920929 
	C306.569885,345.262329 306.618561,338.602844 306.648193,331.476562 
	C307.972717,329.735596 309.435303,329.765625 311.320312,330.792847 
z"/>
<path fill="#578EFE" opacity="1.000000" stroke="none" 
	d="
M334.296143,136.097015 
	C328.598480,130.896744 323.151001,125.766579 317.978668,120.372612 
	C315.727661,118.025154 313.422241,116.752556 310.138672,117.121643 
	C308.166626,117.343315 306.118439,117.387779 304.158081,117.119759 
	C298.396576,116.332008 293.776062,117.982765 290.346710,122.816856 
	C288.107574,125.973183 285.234344,126.859604 280.655273,124.078133 
	C284.744415,120.337463 288.620148,116.798706 292.486359,113.249619 
	C293.250031,112.548569 294.091278,112.114166 295.160095,112.116119 
	C301.816589,112.128326 308.473297,112.150352 315.129486,112.105850 
	C317.066223,112.092911 318.092407,113.422081 319.252777,114.580360 
	C325.494751,120.811035 331.721771,127.056686 338.116699,133.597412 
	C337.478363,135.298553 336.145813,135.809311 334.296143,136.097015 
z"/>
<path fill="#15E6FC" opacity="1.000000" stroke="none" 
	d="
M178.969421,331.702576 
	C179.343933,338.660706 179.406830,345.313660 179.368271,351.966064 
	C179.349197,355.254944 180.009964,357.285431 184.145981,357.029572 
	C189.255661,356.713501 192.129608,359.679291 192.179581,364.363739 
	C192.225967,368.710602 188.999451,372.025452 184.739532,372.007507 
	C180.366302,371.989075 177.277557,368.632721 177.254791,363.823730 
	C177.251694,363.167969 177.783997,362.272766 177.509140,361.889923 
	C171.028702,352.863617 175.515106,342.618317 174.283966,332.572113 
	C175.577133,330.768097 177.043716,330.767242 178.969421,331.702576 
z"/>
<path fill="#578EFE" opacity="1.000000" stroke="none" 
	d="
M147.908295,134.211304 
	C154.364151,127.161652 160.956406,120.373871 167.679337,113.718056 
	C169.991501,111.428970 191.192856,111.214859 193.665665,113.422173 
	C197.337997,116.700211 200.832672,120.177261 204.589096,123.746468 
	C200.330429,126.551979 197.566650,125.631516 195.357224,122.532333 
	C188.963364,113.563583 179.653107,118.128151 171.504517,117.478645 
	C170.587906,117.405579 169.483612,119.057465 168.545441,119.989090 
	C163.240433,125.257111 157.959564,130.549423 152.369019,135.982697 
	C150.549042,136.077408 149.212708,135.572525 147.908295,134.211304 
z"/>
<path fill="#18E5FC" opacity="1.000000" stroke="none" 
	d="
M145.733459,333.717102 
	C146.130447,338.818207 147.407074,344.024963 145.976166,348.332275 
	C143.824539,354.809052 140.158310,360.907745 136.362213,366.656189 
	C134.667358,369.222748 130.923721,368.833496 128.148865,367.121887 
	C124.947510,365.147217 123.977875,362.077332 124.881989,358.499146 
	C125.705002,355.241974 128.003448,353.482147 131.263611,353.097351 
	C140.410965,352.017639 141.089935,351.277252 141.099564,341.900543 
	C141.101944,339.579437 141.127670,337.258331 141.218414,334.478302 
	C142.511002,332.776398 143.915558,332.820251 145.733459,333.717102 
z"/>
<path fill="#31D0FC" opacity="1.000000" stroke="none" 
	d="
M333.445892,268.783875 
	C331.798157,280.387939 336.620392,288.486328 345.244324,295.453247 
	C351.009796,300.110931 355.798523,305.977661 361.062988,311.644653 
	C359.825134,313.122101 358.442810,313.938690 356.290161,313.241577 
	C347.304413,304.509979 338.689178,295.975006 329.993713,287.522644 
	C328.478271,286.049561 328.388947,284.284058 328.360138,282.490173 
	C328.293488,278.333923 328.377441,274.175232 328.502075,269.572693 
	C329.935455,267.610474 331.495087,267.747253 333.445892,268.783875 
z"/>
<path fill="#32C9FC" opacity="1.000000" stroke="none" 
	d="
M385.943420,293.278748 
	C382.122437,287.915833 377.150909,284.177856 372.974854,279.682312 
	C371.777679,278.393555 370.403717,278.690826 368.871735,278.716248 
	C364.097229,278.795532 360.346069,275.082153 360.500824,270.723602 
	C360.645630,266.645142 364.369415,263.290070 368.526337,263.492706 
	C372.749573,263.698578 376.117401,267.429932 375.490082,272.083069 
	C375.179016,274.390625 376.126068,275.449219 377.412506,276.735474 
	C381.059662,280.382050 384.695831,284.039673 388.336456,287.692780 
	C389.623474,288.984222 391.134277,290.161407 390.580200,292.673950 
	C389.184570,294.301941 387.730499,294.158295 385.943420,293.278748 
z"/>
<path fill="#32C9FC" opacity="1.000000" stroke="none" 
	d="
M95.799652,292.298401 
	C94.735085,289.715454 96.651680,288.754333 97.849594,287.512939 
	C101.074905,284.170502 104.367531,280.892212 107.668922,277.624298 
	C109.472534,275.839020 110.625961,274.113739 110.365913,271.184570 
	C109.990326,266.953857 113.732887,263.348267 117.763855,263.523926 
	C121.889175,263.703644 124.632935,265.820740 125.250999,270.087463 
	C125.834595,274.116119 122.801712,278.803162 118.732925,278.484100 
	C113.825455,278.099304 111.620537,281.090637 108.860764,283.785126 
	C106.249130,286.334900 103.680016,288.928253 100.857834,291.760956 
	C99.258553,293.375732 97.707108,293.221222 95.799652,292.298401 
z"/>
<path fill="#4F95FD" opacity="1.000000" stroke="none" 
	d="
M340.773560,160.446198 
	C332.836243,153.013840 325.272675,145.782959 317.898285,138.364044 
	C314.497070,134.942307 311.258118,131.606781 306.140594,130.772079 
	C304.482391,130.501602 302.579163,129.901642 301.304993,128.424118 
	C304.384857,125.504936 312.167450,125.244530 315.134521,128.193008 
	C325.162842,138.158524 335.088715,148.227112 345.200348,158.565796 
	C344.328644,160.305496 342.892792,160.720505 340.773560,160.446198 
z"/>
<path fill="#4A97FD" opacity="1.000000" stroke="none" 
	d="
M147.435379,134.049164 
	C149.216827,134.012436 150.501114,134.637100 151.868896,135.835480 
	C147.554047,140.770340 143.086426,145.454819 138.503220,150.023331 
	C136.786255,151.734787 135.770035,153.352509 135.869324,156.039307 
	C136.040268,160.665390 132.271500,164.104599 128.059937,163.857971 
	C124.194099,163.631592 121.016579,160.184723 121.001343,156.201050 
	C120.985329,152.014053 124.176186,148.714691 128.735779,149.024231 
	C131.647659,149.221909 133.350372,148.049683 135.154709,146.182434 
	C139.081253,142.118988 143.143402,138.186584 147.435379,134.049164 
z"/>
<path fill="#4A97FD" opacity="1.000000" stroke="none" 
	d="
M334.080688,136.429092 
	C334.779724,134.811310 336.152405,134.381424 337.915771,133.947525 
	C341.850677,137.359741 345.447235,140.796219 348.984955,144.292221 
	C351.669647,146.945267 353.910431,149.728699 358.606659,149.145432 
	C362.214172,148.697357 365.247833,152.808060 364.958099,156.575928 
	C364.633667,160.795380 362.139893,163.405594 358.031067,163.771042 
	C353.809143,164.146561 350.239929,161.603333 350.368225,157.674637 
	C350.532684,152.639099 347.597900,150.224243 344.755005,147.336288 
	C341.259491,143.785355 337.737549,140.260391 334.080688,136.429092 
z"/>
<path fill="#5886FE" opacity="1.000000" stroke="none" 
	d="
M117.249329,116.316521 
	C120.158752,112.782082 123.251053,109.543388 126.353043,106.314011 
	C128.942657,103.618050 131.659256,101.440086 131.308273,96.713036 
	C131.006210,92.644569 134.551315,90.346886 138.721069,90.237717 
	C142.456284,90.139923 145.690125,93.364067 145.987946,97.106369 
	C146.300354,101.032013 143.641632,105.259689 140.027237,104.878349 
	C135.151749,104.363960 132.779480,107.192207 130.003647,110.012108 
	C127.320663,112.737694 124.549400,115.376381 121.513031,118.202950 
	C119.730148,118.254967 118.507446,117.600380 117.249329,116.316521 
z"/>
<path fill="#5886FE" opacity="1.000000" stroke="none" 
	d="
M365.238770,118.346329 
	C362.139587,115.870354 359.471497,113.401848 356.848206,110.886589 
	C353.708282,107.875931 351.274353,104.402107 345.749237,104.799789 
	C342.017181,105.068413 339.898132,101.463326 339.981964,97.450752 
	C340.068390,93.314926 342.561218,90.998459 346.356995,90.371483 
	C350.291748,89.721565 354.282379,91.710938 354.256012,95.364899 
	C354.199921,103.139786 360.158478,106.247032 364.231140,110.896782 
	C365.429230,112.264648 366.745483,113.529030 368.148499,115.127724 
	C368.728668,117.550621 367.162048,117.899864 365.238770,118.346329 
z"/>
<path fill="#4B92FD" opacity="1.000000" stroke="none" 
	d="
M101.803452,156.186676 
	C105.204117,152.297134 108.495773,148.802673 111.885994,145.406586 
	C114.782509,142.505066 117.495163,139.991943 117.309891,135.020767 
	C117.162567,131.067978 120.611717,128.709564 124.919312,128.946518 
	C129.244415,129.184402 131.600586,131.759964 131.920120,135.898422 
	C132.245438,140.111572 129.847336,143.850983 125.974564,143.654541 
	C120.727051,143.388336 118.212006,146.332932 115.241333,149.351852 
	C112.450279,152.188232 109.611855,154.977997 106.500137,157.933594 
	C104.253166,159.017349 102.793228,158.441391 101.803452,156.186676 
z"/>
<path fill="#19DDFC" opacity="1.000000" stroke="none" 
	d="
M356.058105,313.474152 
	C357.410583,312.676361 358.874298,312.335815 360.719818,311.990662 
	C361.275940,315.954193 361.497589,319.921021 361.611206,323.890930 
	C361.722015,327.765625 361.207520,331.406403 364.928101,334.615112 
	C367.759949,337.057373 367.135345,341.163300 364.309814,343.979218 
	C361.321503,346.957397 357.650055,347.092896 354.369598,344.605286 
	C351.234955,342.228271 349.855652,337.965240 352.560822,335.436584 
	C357.724640,330.609741 356.081848,324.926575 356.352417,319.387970 
	C356.440887,317.576416 356.238647,315.750671 356.058105,313.474152 
z"/>
<path fill="#4B92FD" opacity="1.000000" stroke="none" 
	d="
M380.188599,158.205383 
	C376.707977,155.098312 373.590363,152.119339 370.510345,149.101990 
	C367.608124,146.258926 365.235931,143.349884 360.133789,143.677017 
	C356.248688,143.926147 353.825745,140.321243 354.032318,136.038086 
	C354.225403,132.034851 356.441315,129.561493 360.422180,128.995499 
	C364.714111,128.385269 368.598389,130.615677 368.492676,134.461273 
	C368.314697,140.936234 372.693817,143.752823 376.227905,147.472290 
	C378.747070,150.123627 381.365723,152.680389 384.100983,155.578720 
	C383.642670,157.618011 382.303162,158.267014 380.188599,158.205383 
z"/>
<path fill="#19DDFC" opacity="1.000000" stroke="none" 
	d="
M124.735977,312.391785 
	C126.379478,312.308838 127.892502,312.632812 129.792175,313.007690 
	C129.210953,318.486877 130.034256,323.965302 129.706528,329.407288 
	C129.585144,331.422729 130.978455,332.247192 132.087631,333.443726 
	C135.243927,336.848541 135.253967,341.083801 132.240814,344.071442 
	C129.396729,346.891449 124.829018,346.979156 121.930481,344.269379 
	C118.817024,341.358673 118.478760,336.752502 121.800171,333.710724 
	C123.934013,331.756561 124.349106,329.779633 124.332161,327.198639 
	C124.300644,322.399445 124.501419,317.598755 124.735977,312.391785 
z"/>
<path fill="#0CFCFB" opacity="1.000000" stroke="none" 
	d="
M307.736298,395.762817 
	C311.799438,399.347595 316.549896,402.042572 315.639160,408.319214 
	C315.385132,410.070129 317.352814,410.592407 318.275024,411.694550 
	C321.079010,415.045441 320.974487,419.581421 317.977448,422.435272 
	C314.936768,425.330750 310.724518,425.341705 307.699646,422.461975 
	C304.589600,419.501160 304.106445,414.717590 307.423889,411.840515 
	C311.748901,408.089630 310.520386,405.268066 307.036224,402.130554 
	C305.437500,400.690918 303.994324,399.078522 302.337036,397.253265 
	C303.611877,395.344482 305.347534,394.900604 307.736298,395.762817 
z"/>
<path fill="#38AFFD" opacity="1.000000" stroke="none" 
	d="
M112.625679,193.718964 
	C112.936699,198.644791 113.030945,203.289307 113.015846,207.933472 
	C113.004097,211.549713 112.870537,214.872681 115.958504,217.878616 
	C118.602180,220.452042 117.524292,225.429825 114.506683,227.579330 
	C111.135956,229.980377 107.679260,229.996155 104.595978,226.989563 
	C101.602333,224.070343 101.156296,219.257599 104.481491,216.859924 
	C107.967224,214.346512 108.028717,211.376434 107.961617,207.871628 
	C107.872696,203.227081 107.961739,198.579132 108.042542,193.468735 
	C109.662399,191.826569 111.010941,192.643463 112.625679,193.718964 
z"/>
<path fill="#5A7EFE" opacity="1.000000" stroke="none" 
	d="
M348.797882,73.441132 
	C350.053619,72.717972 351.461517,72.301933 353.311035,71.792137 
	C355.803650,73.627823 357.894257,75.517258 359.895996,77.496544 
	C362.562500,80.133110 364.807678,82.686951 369.433655,82.481415 
	C373.389496,82.305641 375.880554,85.625427 375.964844,89.885078 
	C376.040619,93.712555 372.993713,96.874214 369.171478,97.123825 
	C364.902222,97.402618 361.139160,95.349297 361.353638,91.322998 
	C361.647675,85.802399 358.227844,83.328094 355.197296,80.187828 
	C353.120483,78.035873 351.032837,75.894409 348.797882,73.441132 
z"/>
<path fill="#4F8FFD" opacity="1.000000" stroke="none" 
	d="
M116.758080,116.158302 
	C118.547302,116.096672 119.763863,116.766022 121.025726,118.045609 
	C119.190720,120.534843 117.196198,122.739746 115.148041,124.893654 
	C112.365479,127.819893 109.096672,130.093124 109.629402,135.232224 
	C110.010628,138.909958 105.225143,142.181000 101.550171,141.570389 
	C97.468300,140.892166 95.051102,138.365387 94.959587,134.096115 
	C94.866554,129.755661 97.305267,126.529861 101.381516,126.870796 
	C105.871849,127.246353 107.933739,124.751854 110.441139,122.227203 
	C112.424255,120.230438 114.448128,118.274132 116.758080,116.158302 
z"/>
<path fill="#5C80FE" opacity="1.000000" stroke="none" 
	d="
M132.702576,71.154289 
	C133.120819,73.026299 134.727737,73.384972 136.526306,73.927429 
	C134.585724,76.366707 132.331619,78.801361 130.028885,81.189133 
	C127.315102,84.003120 124.449142,86.292824 124.680412,91.171036 
	C124.857773,94.911865 121.529251,97.179619 117.417854,97.143143 
	C113.287170,97.106499 110.841621,94.841942 110.136238,90.968773 
	C109.412621,86.995590 111.293083,82.994827 115.008965,82.973930 
	C122.929169,82.929405 126.161324,76.845108 130.959595,72.674492 
	C131.461487,72.238243 131.920258,71.752388 132.702576,71.154289 
z"/>
<path fill="#4F8FFD" opacity="1.000000" stroke="none" 
	d="
M364.923584,118.652184 
	C365.823212,117.611092 366.858612,116.862625 368.091736,115.764389 
	C371.030853,117.262222 372.563049,120.287903 375.328156,122.242065 
	C378.314819,124.352768 380.233490,127.370140 384.905548,126.936127 
	C388.795471,126.574768 390.950775,130.014587 390.998138,133.974594 
	C391.049316,138.249771 388.565094,140.930069 384.525909,141.500580 
	C380.663483,142.046127 376.637451,139.932312 376.697205,136.304535 
	C376.822510,128.700211 371.015289,125.684113 367.077637,121.135521 
	C366.428070,120.385208 365.733276,119.674057 364.923584,118.652184 
z"/>
<path fill="#38AFFD" opacity="1.000000" stroke="none" 
	d="
M377.537384,195.731079 
	C377.941162,199.316010 377.985840,202.631912 378.058228,205.947174 
	C378.148468,210.078400 377.339996,214.061081 381.743713,217.332840 
	C384.981445,219.738342 384.282013,223.996475 381.291687,227.020935 
	C378.451569,229.893433 375.038330,230.004410 371.779938,227.840561 
	C368.332825,225.551376 367.227020,221.246231 369.588104,218.730881 
	C374.068329,213.957962 372.655579,208.650116 372.934204,203.399261 
	C373.048370,201.247498 372.974670,199.085754 373.053101,196.464447 
	C374.355835,194.907425 375.717682,194.764832 377.537384,195.731079 
z"/>
<path fill="#0BFCFB" opacity="1.000000" stroke="none" 
	d="
M182.279449,397.843079 
	C181.079178,399.758850 179.659348,401.356598 178.132812,402.844910 
	C175.059296,405.841583 174.889801,408.421936 178.289963,411.576111 
	C181.825623,414.856018 181.447876,419.541290 178.059509,422.586609 
	C174.918182,425.409912 170.715805,425.264862 167.769806,422.231384 
	C164.906525,419.283081 164.972519,414.722656 167.953781,411.445709 
	C168.923386,410.380005 170.723953,409.782990 170.397797,407.962769 
	C169.462784,402.744720 173.161026,400.166077 176.607391,397.104706 
	C178.731979,395.930603 180.402496,396.396301 182.279449,397.843079 
z"/>
<path fill="#20D3FC" opacity="1.000000" stroke="none" 
	d="
M95.402641,292.473083 
	C96.966713,292.016693 98.429489,292.015167 100.257874,292.016541 
	C100.642693,295.181183 100.772064,298.347229 100.648903,301.503387 
	C100.534927,304.424011 101.065926,306.719971 103.381195,308.986511 
	C106.348640,311.891510 106.241875,315.598572 103.396400,318.835876 
	C100.866455,321.714172 96.378380,322.131195 93.467072,319.756958 
	C90.383659,317.242340 88.793495,313.234863 91.504433,310.593689 
	C96.228539,305.991058 95.051750,300.710083 95.232193,295.422546 
	C95.260567,294.591187 95.278564,293.759521 95.402641,292.473083 
z"/>
<path fill="#449EFD" opacity="1.000000" stroke="none" 
	d="
M113.059753,193.708862 
	C111.529449,193.695068 110.169342,193.389709 108.460014,193.044586 
	C107.527573,190.696457 109.467064,189.770462 110.681381,188.550995 
	C122.171570,177.011826 133.709702,165.520401 145.528076,153.844345 
	C147.550415,153.820404 148.752930,154.639694 149.154968,156.732727 
	C137.114304,169.211609 125.172127,181.314453 113.059753,193.708862 
z"/>
<path fill="#4F95FD" opacity="1.000000" stroke="none" 
	d="
M149.358795,156.962921 
	C148.602829,155.644516 147.127121,155.221924 145.994644,153.973587 
	C154.302109,145.030869 162.625153,136.225296 171.342667,127.829315 
	C174.631256,124.662025 179.234680,126.361076 183.240128,126.751572 
	C184.586441,126.882828 185.614822,128.705307 183.312500,129.274658 
	C169.737000,132.631821 163.207581,144.742859 153.576752,152.986252 
	C152.192627,154.170990 150.962509,155.535675 149.358795,156.962921 
z"/>
<path fill="#12F1FB" opacity="1.000000" stroke="none" 
	d="
M182.826782,398.072083 
	C180.938934,397.831818 179.330597,397.453064 177.316803,397.019836 
	C178.948105,394.803101 180.889191,392.539429 183.046371,390.504883 
	C185.613754,388.083435 187.461670,385.822510 187.243683,381.703949 
	C187.026566,377.601898 190.244736,375.175140 194.446732,375.065643 
	C198.480087,374.960602 201.053879,377.286530 201.864090,381.094879 
	C202.759644,385.304382 200.473434,389.456024 196.828766,389.466919 
	C190.011902,389.487396 187.261444,394.509369 182.826782,398.072083 
z"/>
<path fill="#25D7FC" opacity="1.000000" stroke="none" 
	d="
M146.223145,333.644653 
	C144.739609,334.012573 143.413498,334.011108 141.690796,334.014526 
	C141.221771,331.702484 141.064087,329.384399 141.097244,327.069031 
	C141.144684,323.756622 141.130005,320.879913 138.096252,318.236511 
	C135.217346,315.728058 135.345612,311.889038 138.101334,308.850098 
	C140.947006,305.711945 144.463593,305.279724 147.954376,307.614471 
	C151.303452,309.854401 152.844818,314.161591 150.307953,316.642365 
	C145.143204,321.692871 147.097748,327.634796 146.223145,333.644653 
z"/>
<path fill="#20D3FC" opacity="1.000000" stroke="none" 
	d="
M385.534821,293.459442 
	C387.037811,293.012878 388.406860,293.013092 390.118622,293.015564 
	C390.559753,295.506042 390.793427,297.998108 390.723694,300.481689 
	C390.629120,303.850647 390.855408,306.696442 393.735382,309.370789 
	C396.605103,312.035583 396.224396,315.783081 393.484711,318.784912 
	C390.738708,321.793671 387.327820,322.095703 383.992523,320.028564 
	C380.555237,317.898102 378.872955,313.568420 381.384033,311.061066 
	C386.614166,305.838715 384.841492,299.765808 385.534821,293.459442 
z"/>
<path fill="#31BEFC" opacity="1.000000" stroke="none" 
	d="
M126.551834,232.734802 
	C126.959633,235.993546 127.049316,238.984940 127.071190,241.976822 
	C127.093964,245.092453 127.007515,247.799881 130.028854,250.308456 
	C133.171906,252.918076 132.878418,256.953186 129.958954,260.100342 
	C127.260864,263.008820 123.911407,263.685211 120.527695,261.347504 
	C117.096970,258.977295 115.147629,254.764465 118.045059,251.951035 
	C123.684036,246.475540 121.408173,240.051056 122.076134,233.464355 
	C123.373634,231.896179 124.734566,231.770126 126.551834,232.734802 
z"/>
<path fill="#4DA7FD" opacity="1.000000" stroke="none" 
	d="
M123.163757,194.280090 
	C135.606598,181.806305 148.216446,169.610794 160.826294,157.415283 
	C156.866287,163.410278 153.870178,170.188110 148.666397,175.515350 
	C141.703873,182.643066 134.620255,189.652512 127.316986,196.906250 
	C125.644150,196.490845 124.503845,195.500641 123.163757,194.280090 
z"/>
<path fill="#12F1FB" opacity="1.000000" stroke="none" 
	d="
M307.950745,395.659790 
	C306.375305,396.301361 304.659393,396.637085 302.568451,396.967407 
	C300.840271,395.743042 299.383911,394.618866 298.157562,393.283386 
	C296.184082,391.134369 294.194885,389.757721 290.920593,389.882690 
	C286.832611,390.038696 283.903656,386.427795 283.965424,382.347260 
	C284.023987,378.480865 286.926727,375.303986 290.777252,375.073059 
	C295.082489,374.814819 298.769043,377.139435 298.559631,381.037659 
	C298.264099,386.538757 301.580841,389.048279 304.650757,392.157227 
	C305.703461,393.223206 306.757080,394.288330 307.950745,395.659790 
z"/>
<path fill="#37BBFC" opacity="1.000000" stroke="none" 
	d="
M165.483200,258.052063 
	C157.155029,249.561493 149.211746,241.147461 141.158966,232.839554 
	C139.541595,231.170944 139.531128,229.864471 140.942734,228.175446 
	C142.212784,226.655823 143.314865,224.995819 144.769699,223.207428 
	C146.475906,221.877518 147.908859,222.195816 149.639572,223.224838 
	C150.687286,224.287094 150.868988,225.387711 150.285629,226.198486 
	C147.370514,230.250061 149.783539,232.742996 152.569244,235.450760 
	C158.935043,241.638535 165.324951,247.827667 170.271271,255.630249 
	C169.123398,257.426697 167.630112,258.108032 165.483200,258.052063 
z"/>
<path fill="#18E5FC" opacity="1.000000" stroke="none" 
	d="
M344.380127,346.708130 
	C345.710419,351.169586 348.066345,353.466766 352.640533,353.122986 
	C357.535706,352.755096 360.939423,355.526520 361.360748,359.974365 
	C361.765930,364.251648 358.731384,367.869171 354.500458,368.152557 
	C349.938782,368.458069 346.471954,365.605225 346.425751,360.694336 
	C346.399902,357.946655 345.275208,356.414062 343.423248,354.873840 
	C341.232849,353.052216 339.045074,351.156769 339.872528,347.397644 
	C341.204224,345.983246 342.564636,345.744904 344.380127,346.708130 
z"/>
<path fill="#12EAFB" opacity="1.000000" stroke="none" 
	d="
M263.360718,379.057190 
	C264.802765,376.806122 266.484894,374.975372 268.217560,373.193695 
	C270.487030,370.859924 272.766693,368.917877 272.555328,364.880646 
	C272.345184,360.867188 276.527374,357.804840 280.384399,358.292511 
	C284.516754,358.814972 287.097076,361.246979 287.278961,365.491211 
	C287.460815,369.735687 284.964203,373.396088 281.051605,372.989868 
	C274.839966,372.345001 272.422119,376.678802 268.604797,379.971924 
	C266.600616,381.048218 265.031982,380.874847 263.360718,379.057190 
z"/>
<path fill="#12EAFB" opacity="1.000000" stroke="none" 
	d="
M219.253296,381.249756 
	C217.171555,379.696655 215.429947,378.164764 213.801514,376.520813 
	C211.705643,374.404938 209.936066,372.698395 206.226089,373.220642 
	C202.262909,373.778564 199.324188,371.052734 198.769882,366.798553 
	C198.219894,362.577698 200.163803,359.651093 204.286011,358.601196 
	C208.430710,357.545532 212.496048,359.271210 212.805954,363.219696 
	C213.329926,369.895386 217.969193,373.132874 221.939087,377.544434 
	C222.574875,379.910980 221.105499,380.563354 219.253296,381.249756 
z"/>
<path fill="#449EFD" opacity="1.000000" stroke="none" 
	d="
M377.953796,195.601685 
	C376.560638,195.999924 375.237122,195.999451 373.516663,195.999649 
	C373.251160,193.578079 371.724762,192.107941 370.168457,190.554993 
	C360.299988,180.708145 350.479675,170.813065 340.482971,160.627747 
	C341.705963,159.866837 343.089508,159.412064 344.909973,158.916290 
	C355.733154,169.160217 366.086945,179.478271 376.538086,189.696793 
	C378.240845,191.361649 378.064453,193.226944 377.953796,195.601685 
z"/>
<path fill="#12F1FB" opacity="1.000000" stroke="none" 
	d="
M329.629883,375.746277 
	C330.368683,380.707794 332.368225,383.081787 337.627655,382.634125 
	C341.906036,382.269958 345.166840,386.169220 345.003571,390.344879 
	C344.852295,394.215240 341.378510,397.592010 337.507141,397.631958 
	C333.610931,397.672180 329.923676,394.476837 330.122711,390.423645 
	C330.277863,387.265167 329.539398,384.944550 327.085968,383.113312 
	C324.897369,381.479797 324.869873,379.186951 325.149902,376.403320 
	C326.447510,374.835266 327.814056,374.789001 329.629883,375.746277 
z"/>
<path fill="#449EFD" opacity="1.000000" stroke="none" 
	d="
M379.964264,158.395340 
	C381.074158,157.447647 382.339111,156.801254 383.933014,156.016479 
	C387.425598,159.262024 392.331146,161.315613 392.296356,167.154419 
	C392.290283,168.176331 394.442719,169.078583 395.275482,170.263016 
	C397.702393,173.714691 397.621979,177.089355 394.463440,180.132126 
	C391.630310,182.861420 387.407166,183.048721 384.541351,180.438995 
	C381.362488,177.544205 380.364929,173.169708 383.441071,170.742691 
	C389.412384,166.031372 385.071472,163.799011 382.204773,160.848373 
	C381.508789,160.131958 380.814453,159.413940 379.964264,158.395340 
z"/>
<path fill="#31C4FC" opacity="1.000000" stroke="none" 
	d="
M237.931030,284.618652 
	C236.468399,284.696838 235.119125,284.386963 233.421692,284.040771 
	C230.559464,281.044556 232.414810,277.863434 232.966248,274.961456 
	C233.704468,271.076416 232.627090,268.676392 229.313690,266.676300 
	C225.188004,264.185883 221.229935,261.407684 217.256424,258.670593 
	C215.498703,257.459808 213.515884,256.346680 213.589737,253.436371 
	C215.292160,252.738876 216.850800,252.390228 218.809357,251.986023 
	C225.572571,256.077515 231.916412,260.254974 238.311661,264.352142 
	C240.116364,265.508362 241.303619,266.665955 240.786804,269.124329 
	C239.734329,274.130646 238.943207,279.191925 237.931030,284.618652 
z"/>
<path fill="#1DDDFC" opacity="1.000000" stroke="none" 
	d="
M160.855804,355.550476 
	C159.455750,356.009216 158.133453,356.003967 156.414093,356.000458 
	C155.955048,341.512390 155.911819,327.022461 155.814941,312.532867 
	C155.796112,309.717651 156.932053,306.915802 159.609085,307.178680 
	C162.389175,307.451660 161.703384,310.044220 161.260971,312.642883 
	C160.488586,317.179688 160.973816,321.933563 160.963470,326.596497 
	C160.942398,336.093140 160.942307,345.589813 160.855804,355.550476 
z"/>
<path fill="#449EFD" opacity="1.000000" stroke="none" 
	d="
M101.570770,155.911407 
	C102.674286,157.134995 104.064201,157.575653 105.840851,158.030182 
	C105.218620,159.184219 104.332367,160.405258 103.224754,161.372925 
	C100.018539,164.173996 97.516899,166.401978 102.401268,170.497940 
	C105.433464,173.040680 104.771072,177.183563 101.584923,180.162674 
	C98.801384,182.765350 95.639168,183.133545 92.545586,180.967575 
	C89.160080,178.597260 87.531349,174.974564 90.088470,171.512329 
	C93.863976,166.400452 95.476257,159.696960 101.570770,155.911407 
z"/>
<path fill="#37BBFC" opacity="1.000000" stroke="none" 
	d="
M344.390991,227.793243 
	C347.132568,232.294678 343.064911,234.409225 341.174957,236.558685 
	C333.594482,245.180054 325.497284,253.347122 317.301331,261.842743 
	C315.141663,263.203369 313.588470,262.333649 311.856567,260.936462 
	C311.159546,257.824677 313.431519,256.571533 314.916870,254.923111 
	C322.850433,246.118698 331.200226,237.705856 339.586487,228.821091 
	C341.163696,227.797821 342.520630,227.230392 344.390991,227.793243 
z"/>
<path fill="#27C8FC" opacity="1.000000" stroke="none" 
	d="
M345.400513,266.718933 
	C346.215637,273.268677 347.360352,274.457153 353.345428,274.919067 
	C357.744171,275.258545 360.844879,278.659668 360.544556,282.815674 
	C360.274170,286.557556 356.544556,289.928589 352.758301,289.853271 
	C349.015686,289.778809 345.134613,286.214355 345.660156,282.362274 
	C346.085480,279.244812 345.305969,277.218567 343.001099,275.562103 
	C340.171326,273.528412 340.827087,270.618958 340.906586,267.422272 
	C342.228455,265.975922 343.586853,265.747223 345.400513,266.718933 
z"/>
<path fill="#3DAEFD" opacity="1.000000" stroke="none" 
	d="
M344.572998,227.712662 
	C343.213440,228.371063 341.735931,228.728088 339.872375,229.130554 
	C337.208313,228.982315 336.136627,227.211151 334.958466,225.637177 
	C331.087708,220.466095 327.284149,215.243195 323.537048,209.983688 
	C318.721222,203.224136 318.789734,201.076675 323.737915,193.656097 
	C325.738861,192.835892 327.211823,193.227432 328.770020,194.668106 
	C325.711975,200.815750 327.774597,205.392441 331.756073,210.120636 
	C336.352020,215.578552 340.252563,221.622070 344.572998,227.712662 
z"/>
<path fill="#48A3FD" opacity="1.000000" stroke="none" 
	d="
M329.230286,194.732483 
	C327.638977,194.670807 326.278564,194.342911 324.564240,194.011612 
	C322.823944,192.883560 323.433868,191.496201 324.012054,190.397934 
	C326.020844,186.582001 324.707581,183.510635 322.449341,180.296204 
	C319.209595,175.684677 316.447815,170.747147 313.260254,166.089127 
	C312.340698,164.745407 311.213989,163.418335 311.766479,161.287445 
	C313.416473,160.670792 314.841217,160.339294 316.636261,160.003159 
	C322.013062,167.630005 326.943390,175.313171 332.068665,182.864014 
	C333.780914,185.386612 332.128967,187.282578 331.475891,189.381989 
	C330.935974,191.117691 330.142365,192.774490 329.230286,194.732483 
z"/>
<path fill="#3DAEFD" opacity="1.000000" stroke="none" 
	d="
M150.585052,224.095871 
	C148.730621,223.714157 147.268448,223.366653 145.427307,223.018143 
	C148.565933,218.029800 151.847839,212.851929 155.676468,208.116058 
	C158.679886,204.400986 160.031204,200.946198 157.265686,196.587280 
	C156.580124,195.506744 156.393234,194.109818 155.957932,192.478302 
	C156.064331,189.454086 158.094650,190.136597 160.043243,190.075531 
	C166.760529,196.066727 167.726669,203.451797 162.522049,209.968369 
	C158.724289,214.723450 156.370300,220.679489 150.585052,224.095871 
z"/>
<path fill="#31C4FC" opacity="1.000000" stroke="none" 
	d="
M267.495300,251.078873 
	C269.304321,251.043182 270.597565,251.664490 271.923401,252.950241 
	C273.065979,256.056152 270.851654,257.118439 269.178986,258.315216 
	C265.390747,261.025665 261.542297,263.671936 257.552734,266.066864 
	C254.116302,268.129669 251.727295,270.447632 252.898132,274.862152 
	C253.108002,275.653442 252.694733,276.492859 251.880157,277.427948 
	C250.228622,278.220276 248.918381,278.231476 247.304871,277.254822 
	C245.839462,275.245239 246.416229,273.076050 245.695404,271.268433 
	C244.129669,267.341888 245.897598,265.372711 249.157318,263.370758 
	C255.329590,259.580048 261.202759,255.302338 267.495300,251.078873 
z"/>
<path fill="#31BEFC" opacity="1.000000" stroke="none" 
	d="
M363.508453,242.724854 
	C363.897400,245.884888 364.035156,248.318298 367.030121,250.387039 
	C370.083710,252.496262 369.540802,257.407623 366.834351,260.173279 
	C363.861115,263.211548 359.600098,263.433472 356.541016,260.709412 
	C353.355316,257.872620 352.910614,253.189392 355.974731,250.059113 
	C357.789642,248.205017 359.479126,246.614944 359.029846,243.394409 
	C360.336334,241.919662 361.694550,241.764557 363.508453,242.724854 
z"/>
<path fill="#4DA7FD" opacity="1.000000" stroke="none" 
	d="
M352.898132,190.315842 
	C341.577332,180.692551 331.549896,170.536179 325.735382,156.893845 
	C335.823975,166.855774 345.912537,176.817688 356.121704,187.072205 
	C356.695709,189.700333 355.111816,190.141556 352.898132,190.315842 
z"/>
<path fill="#48A3FD" opacity="1.000000" stroke="none" 
	d="
M160.973846,190.752747 
	C159.274567,191.125473 157.752701,190.645462 156.165833,191.812592 
	C152.760391,187.711502 152.789276,183.737625 156.234940,179.169189 
	C160.718750,173.224365 164.431503,166.697937 168.734680,160.210190 
	C170.651199,159.998932 172.309082,159.999268 174.380737,159.998596 
	C175.971542,162.053192 174.431763,163.477997 173.480316,164.887726 
	C170.237671,169.692276 167.583389,174.890503 164.061676,179.486252 
	C161.481461,182.853348 160.267639,186.332504 160.973846,190.752747 
z"/>
<path fill="#25D7FC" opacity="1.000000" stroke="none" 
	d="
M340.309143,324.265442 
	C339.520416,322.075043 338.724487,320.542755 337.136383,319.062958 
	C333.850952,316.001587 334.011322,311.323975 336.978424,308.443085 
	C339.935425,305.572021 344.341522,305.487183 347.292175,308.244476 
	C350.617767,311.352112 350.664978,315.697113 347.185852,319.215332 
	C345.997894,320.416656 344.629791,321.324066 344.793701,323.637634 
	C343.493256,325.228821 342.120880,325.186127 340.309143,324.265442 
z"/>
<path fill="#32C9FC" opacity="1.000000" stroke="none" 
	d="
M311.608612,259.995361 
	C313.458771,260.724701 314.891022,261.330536 316.667419,261.969849 
	C315.022095,264.060211 314.492126,266.370758 315.080353,269.247070 
	C316.776855,277.542755 318.234436,285.887268 319.770264,294.614288 
	C318.373230,295.016357 316.991821,295.016754 315.195312,295.032288 
	C312.688446,294.618988 312.471832,292.768250 312.184174,291.233643 
	C310.688110,283.252930 309.066681,275.290833 307.857178,267.262512 
	C307.407654,264.278625 307.486603,261.159088 311.608612,259.995361 
z"/>
<path fill="#32C9FC" opacity="1.000000" stroke="none" 
	d="
M165.263885,258.247925 
	C166.553116,257.308197 167.969376,256.678223 169.720963,256.017639 
	C177.131088,258.990631 179.341019,262.350006 177.743027,269.290649 
	C176.234909,275.840820 176.531448,282.846039 172.589874,288.973755 
	C170.798462,289.029266 169.422256,289.016815 167.634094,289.008392 
	C168.098618,284.170898 168.535751,279.195740 169.957687,274.520081 
	C171.942978,267.991974 170.991989,262.715698 165.263885,258.247925 
z"/>
<path fill="#1DDDFC" opacity="1.000000" stroke="none" 
	d="
M325.562286,346.295837 
	C325.167633,337.187561 325.187622,328.362122 324.999359,319.541138 
	C324.936920,316.617340 325.807343,313.592529 324.112701,310.752136 
	C323.229095,309.271179 324.603119,308.284180 325.586365,307.442963 
	C327.156616,306.099518 327.887909,307.724976 328.838867,308.502777 
	C330.519958,309.877655 330.159119,311.799133 330.160645,313.597687 
	C330.169495,324.091400 330.153107,334.585083 330.060974,345.541443 
	C328.735535,347.040314 327.377472,347.248260 325.562286,346.295837 
z"/>
<path fill="#38AFFD" opacity="1.000000" stroke="none" 
	d="
M122.661308,194.263947 
	C124.644684,194.252914 126.237915,194.593140 126.985085,196.755402 
	C127.044167,208.757599 127.043007,220.415451 126.970795,232.537613 
	C125.578003,233.001648 124.256264,233.001358 122.538132,233.001740 
	C121.983681,220.175934 121.637306,207.348511 122.661308,194.263947 
z"/>
<path fill="#18F4FB" opacity="1.000000" stroke="none" 
	d="
M262.837494,378.764099 
	C264.535828,379.089783 265.973480,379.564575 267.863220,380.081482 
	C264.145630,383.529144 264.796295,386.308136 268.818878,389.625702 
	C273.105774,393.161224 276.778656,397.441193 280.847839,401.703308 
	C279.396606,402.240234 277.871674,402.563965 277.086487,404.570068 
	C270.870026,398.840668 264.738647,392.742188 258.502869,386.752380 
	C256.874268,385.188049 257.025452,384.093842 258.634583,382.731079 
	C260.027435,381.551453 261.268616,380.192749 262.837494,378.764099 
z"/>
<path fill="#18F4FB" opacity="1.000000" stroke="none" 
	d="
M219.006531,381.591858 
	C219.836960,380.340729 220.811066,379.403107 221.934235,378.154083 
	C229.762497,384.431702 229.763901,384.433105 222.846207,391.360657 
	C218.422546,395.790588 213.994064,400.215668 209.263428,404.770569 
	C209.036469,402.854675 206.761795,403.180634 205.849152,401.625488 
	C210.203308,396.652191 214.583115,391.880127 219.292145,387.458649 
	C221.658615,385.236725 221.410904,383.701721 219.006531,381.591858 
z"/>
<path fill="#2DCFFC" opacity="1.000000" stroke="none" 
	d="
M246.947418,277.441833 
	C248.336731,277.007416 249.702744,277.004059 251.478394,277.001404 
	C253.472687,285.917999 260.683929,290.087250 267.032928,294.997681 
	C268.327484,295.998901 269.814117,296.865265 270.353027,298.928345 
	C269.969635,301.021027 267.679871,300.660370 267.089752,302.580017 
	C261.415222,298.809174 255.521408,295.000580 250.304031,290.421326 
	C246.746597,287.298981 247.520905,282.222321 246.947418,277.441833 
z"/>
<path fill="#38AFFD" opacity="1.000000" stroke="none" 
	d="
M352.596375,190.495056 
	C353.572083,189.492935 354.726868,188.798401 356.061981,187.734329 
	C361.252106,191.678894 365.415070,196.181229 364.144196,203.771179 
	C363.420410,208.094025 363.993805,212.634079 363.913818,217.540710 
	C362.619263,219.113968 361.262085,219.220947 359.455048,218.270950 
	C359.047943,214.400360 358.558746,210.740829 359.017090,207.204117 
	C359.887878,200.484955 358.050232,195.055801 352.596375,190.495056 
z"/>
<path fill="#12EAFB" opacity="1.000000" stroke="none" 
	d="
M325.158691,346.474426 
	C326.547485,346.007812 327.866089,346.004333 329.580688,346.002472 
	C330.032715,355.695465 330.088776,365.386841 330.064819,375.541565 
	C328.661743,376.003357 327.338654,376.001801 325.619202,376.000641 
	C325.178040,366.313202 325.133270,356.625366 325.158691,346.474426 
z"/>
<path fill="#4F8FFD" opacity="1.000000" stroke="none" 
	d="
M267.360413,115.016388 
	C269.155396,115.006187 270.482269,115.609901 271.874268,116.843742 
	C265.947052,124.353165 258.129578,129.964874 253.187881,138.335754 
	C251.428879,133.328766 251.880249,129.586533 255.746292,126.332092 
	C259.790192,122.927940 263.325134,118.919167 267.360413,115.016388 
z"/>
<path fill="#4F8FFD" opacity="1.000000" stroke="none" 
	d="
M216.071625,119.497253 
	C215.931717,117.382301 217.385117,116.832878 218.995300,115.970261 
	C223.489517,119.876282 227.575790,124.003342 231.816116,127.965576 
	C235.236588,131.161728 233.510040,134.983200 233.708267,138.811905 
	C227.222595,138.545181 229.631210,131.588730 225.821945,129.141693 
	C222.138657,126.775574 219.384430,122.963181 216.071625,119.497253 
z"/>
<path fill="#31B4FD" opacity="1.000000" stroke="none" 
	d="
M359.038574,218.468185 
	C360.424713,218.003693 361.740143,218.002975 363.450073,218.003677 
	C363.890289,226.026260 363.936035,234.047440 363.916351,242.533173 
	C362.531769,242.998322 361.212555,242.998901 359.497711,242.998642 
	C359.057312,234.975845 359.012604,226.953888 359.038574,218.468185 
z"/>
<path fill="#19DDFC" opacity="1.000000" stroke="none" 
	d="
M339.871887,324.478577 
	C341.271088,324.013031 342.593994,324.009979 344.312592,324.008850 
	C344.761688,331.366791 344.815033,338.722778 344.786987,346.541351 
	C343.386627,347.002258 342.067627,347.000549 340.351807,346.998779 
	C339.901825,339.646179 339.848694,332.293640 339.871887,324.478577 
z"/>
<path fill="#31BEFC" opacity="1.000000" stroke="none" 
	d="
M345.809570,266.547852 
	C344.410492,267.006958 343.092316,267.002869 341.377686,266.998962 
	C340.916504,261.702606 340.942505,256.402832 340.754364,251.110657 
	C340.634033,247.726074 343.086517,246.331863 345.890472,243.648178 
	C345.890472,251.767609 345.890472,258.926147 345.809570,266.547852 
z"/>
<path fill="#5DD1FD" opacity="1.000000" stroke="none" 
	d="
M333.843933,268.608643 
	C332.274261,269.048401 330.796722,269.031738 328.961487,269.071472 
	C327.552673,261.792450 327.747009,261.261810 333.281403,256.985687 
	C334.650116,260.751465 333.733948,264.501862 333.843933,268.608643 
z"/>
<path fill="#55E6FD" opacity="1.000000" stroke="none" 
	d="
M179.503937,331.711426 
	C177.934097,332.009064 176.545303,332.010162 174.746170,332.062683 
	C174.335831,329.209290 174.335831,326.304504 174.335831,322.828888 
	C177.995514,324.940582 180.523087,327.090515 179.503937,331.711426 
z"/>
<path fill="#55E6FD" opacity="1.000000" stroke="none" 
	d="
M311.772827,330.684387 
	C310.275665,331.055450 308.893005,330.996124 307.091675,330.973083 
	C304.933044,326.532227 308.659546,325.251740 311.887329,322.132782 
	C311.887329,325.573059 311.887329,327.913513 311.772827,330.684387 
z"/>
<path fill="#4DA7FD" opacity="1.000000" stroke="none" 
	d="
M161.621094,155.746994 
	C161.511932,155.864655 161.428085,155.490540 161.428085,155.490540 
	C161.428085,155.490540 161.730255,155.629333 161.621094,155.746994 
z"/>
<path fill="#4DA7FD" opacity="1.000000" stroke="none" 
	d="
M324.385437,155.473938 
	C324.506744,155.367752 324.553558,155.749084 324.553558,155.749084 
	C324.553558,155.749084 324.264160,155.580139 324.385437,155.473938 
z"/>
<path fill="#FEFFFF" opacity="1.000000" stroke="none" 
	d="
M270.631836,299.477356 
	C266.270691,296.143738 262.397247,292.721130 258.112213,289.930573 
	C253.560150,286.966125 252.140320,282.818756 251.978485,277.407837 
	C249.303024,270.035767 253.155197,266.666901 258.694916,263.504456 
	C263.391541,260.823273 268.361267,258.258606 272.002380,253.565002 
	C280.317566,245.546646 288.524567,237.835083 296.731567,230.123520 
	C296.266388,229.523560 295.801178,228.923615 295.335999,228.323654 
	C293.289001,229.002228 291.225403,229.634796 289.197693,230.366821 
	C275.474976,235.320953 261.722168,240.196014 248.068375,245.333939 
	C244.600372,246.638962 241.618790,246.705704 238.098862,245.407547 
	C222.707367,239.731018 207.206329,234.351486 191.390717,228.917542 
	C196.372055,236.764908 203.814026,242.624252 210.018265,249.621201 
	C211.002533,250.731232 212.115082,251.727509 213.450928,252.931961 
	C217.076141,258.345062 222.637726,260.963715 227.729309,263.689880 
	C233.990097,267.042053 236.224014,271.131134 233.921921,277.824799 
	C233.342575,279.509308 233.292831,281.375946 233.036606,283.581665 
	C232.532532,286.027863 231.207932,287.374908 229.552490,288.621613 
	C217.367096,297.798431 205.174362,306.968201 193.135986,316.335602 
	C190.263046,318.571106 188.611847,318.457703 186.341949,315.555206 
	C183.700027,312.176971 180.678329,308.996155 177.389557,306.246155 
	C172.058594,301.788544 169.509094,296.739685 172.176178,289.458679 
	C173.778503,281.262177 175.374237,273.480957 176.991165,265.704132 
	C177.468842,263.406677 176.306747,261.781799 174.654068,260.580994 
	C173.021866,259.395020 171.424118,258.276978 170.349655,256.158875 
	C163.607834,249.064941 157.452530,241.833572 150.599701,235.338104 
	C146.564362,231.513184 146.168335,228.523880 150.085480,224.405762 
	C154.828415,217.868958 159.436020,211.654938 164.117966,205.497437 
	C165.401764,203.809052 165.228561,202.213806 164.477585,200.412216 
	C163.274094,197.525162 162.199722,194.584274 160.898224,191.338623 
	C158.615509,187.106796 159.430511,183.789795 161.980881,180.193451 
	C166.465164,173.870041 170.431244,167.179123 174.704407,160.319855 
	C177.368851,156.120743 180.384888,152.459381 182.407578,148.313400 
	C185.032684,142.932678 189.284180,141.324570 194.722198,139.763611 
	C203.417679,137.267639 210.202347,138.977158 217.163879,144.457382 
	C224.325775,150.095322 232.379807,154.588623 239.907120,159.780502 
	C242.198303,161.360840 243.709442,161.351303 246.002029,159.659882 
	C255.101273,152.946701 264.446838,146.568207 273.582489,139.903046 
	C275.941772,138.181763 278.198273,137.509354 280.993683,138.301147 
	C282.423950,138.706299 283.925903,139.003922 285.406708,139.061859 
	C295.311768,139.449417 302.717346,143.411942 306.648773,153.026398 
	C307.761322,155.747131 309.838257,158.073517 311.732300,160.791504 
	C315.548126,166.732574 318.695007,172.776917 322.779205,178.102417 
	C326.645355,183.143585 327.621002,187.840942 324.234985,193.645966 
	C320.799713,199.525146 320.153442,204.520523 325.020294,210.012344 
	C330.174408,215.828293 334.388062,222.477615 339.249390,228.969482 
	C340.206940,231.337753 338.230957,232.034103 337.203430,233.133224 
	C328.948792,241.962616 320.625244,250.727585 312.174622,259.815552 
	C308.973999,261.912994 308.690979,264.533569 309.343506,267.762787 
	C311.134735,276.626984 312.707031,285.535461 314.573120,294.736938 
	C315.445404,298.098450 314.345093,300.360199 312.119965,302.537781 
	C307.604767,306.956512 303.188385,311.503326 299.068420,316.287659 
	C296.963928,318.731476 295.481628,318.311127 293.318481,316.640686 
	C285.908173,310.918243 278.405762,305.315063 270.631836,299.477356 
z"/>
<path fill="#FDFFFF" opacity="1.000000" stroke="none" 
	d="
M204.113373,333.297211 
	C201.897934,329.660248 203.420105,328.022766 206.509155,326.360748 
	C217.753479,320.310913 228.885864,314.049133 239.971832,307.712311 
	C242.066696,306.514862 243.574127,306.288330 245.785782,307.558441 
	C257.289520,314.164734 268.871979,320.637848 280.524506,326.978210 
	C283.135162,328.398682 284.131195,329.695618 281.887390,332.548889 
	C278.050537,338.553162 274.347473,344.198639 270.594269,349.920563 
	C266.012970,343.714996 266.013214,343.715271 260.306702,349.087616 
	C255.591980,353.526306 250.750565,357.840332 246.213150,362.453400 
	C243.854614,364.851318 242.317352,365.045898 239.831192,362.522461 
	C234.589554,357.202148 228.790054,352.426697 223.615906,347.046417 
	C220.367340,343.668427 218.481201,343.637085 216.862106,348.135773 
	C216.649261,348.727173 216.106827,349.199982 215.585831,349.905396 
	C211.749268,344.367218 208.016144,338.978394 204.113373,333.297211 
z"/>
<path fill="#41ABFD" opacity="1.000000" stroke="none" 
	d="
M213.609283,204.612549 
	C210.609711,208.217010 207.593933,208.280914 204.249161,205.715805 
	C198.628754,201.405487 192.954742,197.165085 187.678497,191.845993 
	C197.224823,193.273117 206.772552,194.690826 216.316330,196.134796 
	C218.381180,196.447220 217.493652,197.703842 216.986176,198.678162 
	C215.989960,200.590744 214.895874,202.452362 213.609283,204.612549 
z"/>
<path fill="#41ABFD" opacity="1.000000" stroke="none" 
	d="
M296.577087,194.543594 
	C291.507324,198.357803 286.776794,202.024918 281.924622,205.523285 
	C277.342499,208.826920 274.805084,208.228027 271.728241,203.400940 
	C267.300323,196.454224 267.297485,196.435699 275.093567,195.240784 
	C282.148865,194.159393 289.208344,193.103729 296.275238,192.102234 
	C296.951874,192.006348 298.108459,191.476349 298.302521,192.556793 
	C298.389923,193.043564 297.376892,193.728027 296.577087,194.543594 
z"/>
<path fill="#37BBFC" opacity="1.000000" stroke="none" 
	d="
M191.016312,228.988586 
	C190.813934,228.856293 190.591492,228.741653 190.369049,228.627029 
	C190.572571,228.631348 190.776093,228.635666 190.969238,228.842255 
	C190.958878,229.044525 190.996246,229.006271 191.016312,228.988586 
z"/>
</svg>